<svg width="19" height="10" viewBox="0 0 19 10" fill="none" xmlns="http://www.w3.org/2000/svg">
<path d="M17.7153 6.88884C17.2378 6.52563 15.9778 6.36535 15.2691 6.3021C13.9758 6.18671 12.3091 6.19549 11.5012 6.47525C11.2353 6.5674 11.1028 6.75782 11.0719 7.09272C11.0678 7.13685 11.066 7.17994 11.0655 7.22077C9.69283 6.97598 8.42573 6.61081 7.34428 6.14825L6.86937 5.93021C5.86332 5.43438 5.0687 4.85344 4.53582 4.22425C4.62492 4.22405 4.71898 4.22322 4.81534 4.22135C5.54322 4.20716 5.95715 4.14645 6.15746 4.02454C6.76419 3.65528 6.78616 2.89282 6.53879 2.30102C6.40166 1.97283 6.05268 1.38937 5.25688 1.16885C4.46518 0.94946 3.24153 1.00238 2.75215 1.03536C1.74255 1.10331 0.902627 1.26802 0.505266 1.4759C0.159007 1.65708 0.0373676 2.17412 0.00117311 2.38798C0.00019883 2.3936 -0.000142296 2.39938 5.25603e-05 2.40503C0.0596298 4.14701 1.51092 5.81046 4.08648 7.08831C4.08994 7.08999 4.09345 7.09238 4.097 7.09402L4.81904 7.42694C4.8226 7.42858 4.8262 7.43303 4.82995 7.43456C7.61265 8.61682 11.2339 9.27099 15.0266 9.31598C15.0286 9.31598 15.0307 9.31598 15.0327 9.31598C15.0427 9.31598 15.0527 9.31018 15.0628 9.30984C15.528 9.29322 16.6526 9.23181 17.0465 9.07315C17.4996 8.8906 17.8586 8.5046 18.0068 8.04058C18.0786 7.81559 18.194 7.253 17.7153 6.88884ZM17.2357 7.98806C17.1192 8.35271 16.8372 8.6798 16.5344 8.80182C16.3986 8.85349 15.6942 8.91984 15.0205 8.94474C11.4285 8.91678 7.99973 8.28548 5.36327 7.16643L4.65205 6.83985C2.21528 5.62968 0.840711 4.0561 0.779819 2.40746C0.833648 2.09897 0.977744 1.7762 1.08983 1.71394C1.35625 1.57458 2.06952 1.44497 2.86478 1.39144C3.69891 1.33528 4.46197 1.36821 4.85597 1.47741C5.23613 1.58276 5.5878 1.92447 5.77369 2.36922C6.01765 2.9529 5.91896 3.56637 5.54488 3.802C5.39382 3.85099 4.7089 3.87724 4.06646 3.85949C3.9967 3.85137 3.92134 3.85191 3.84802 3.8632C3.78401 3.87308 3.72926 3.8899 3.68629 3.91122C3.62438 3.94058 3.58365 3.97976 3.57674 4.02384C3.57079 4.06183 3.59101 4.09787 3.63013 4.12834C4.1689 4.85558 5.0308 5.5291 6.15186 6.10162C6.16511 6.11141 6.1806 6.12074 6.19833 6.12947C6.31383 6.18631 6.43187 6.24209 6.55214 6.29666C6.67125 6.35201 6.79284 6.40629 6.91701 6.45941C6.93606 6.46756 6.95637 6.47466 6.97761 6.48071C8.2242 6.99519 9.69069 7.39088 11.2738 7.63814C11.3398 7.65614 11.4177 7.66542 11.5 7.66257C11.5961 7.65935 11.6814 7.64021 11.7451 7.61124C11.7516 7.60841 11.7574 7.6053 11.7636 7.60226C11.7652 7.60139 11.7669 7.60051 11.7686 7.59961C11.803 7.5818 11.831 7.56092 11.8482 7.53683C11.8724 7.50303 11.8734 7.46834 11.8557 7.43622C11.8174 7.14204 11.8741 6.82863 11.9802 6.7594C12.4976 6.58618 13.8425 6.54138 15.1214 6.65548C16.0825 6.74125 16.8213 6.90223 17.0491 7.0756C17.2863 7.25604 17.3577 7.60568 17.2357 7.98806Z" fill="#EE1C27"/>
<mask id="path-2-inside-1" fill="white">
<path d="M10.4327 0.942838C14.494 0.944922 17.7852 2.46458 17.7898 4.33979C17.7898 4.45015 17.9835 4.53961 18.2225 4.53961C18.4615 4.53961 18.6553 4.45015 18.6553 4.33979C18.6503 2.24395 14.9719 0.545508 10.4327 0.543213C10.1937 0.543213 10 0.632664 10 0.743026C10 0.853387 10.1937 0.942838 10.4327 0.942838Z"/>
</mask>
<path d="M10.4327 0.942838C14.494 0.944922 17.7852 2.46458 17.7898 4.33979C17.7898 4.45015 17.9835 4.53961 18.2225 4.53961C18.4615 4.53961 18.6553 4.45015 18.6553 4.33979C18.6503 2.24395 14.9719 0.545508 10.4327 0.543213C10.1937 0.543213 10 0.632664 10 0.743026C10 0.853387 10.1937 0.942838 10.4327 0.942838Z" fill="#EE1C27"/>
<path d="M10.4327 0.942838L10.4343 -2.05716H10.4327V0.942838ZM17.7898 4.33979H20.7898L20.7898 4.33249L17.7898 4.33979ZM18.6553 4.33979H21.6553L21.6553 4.33261L18.6553 4.33979ZM10.4327 0.543213L10.4343 -2.45679H10.4327V0.543213ZM10.4312 3.94284C12.129 3.94371 13.52 4.26784 14.3749 4.66257C14.8045 4.86093 14.9741 5.01931 14.9988 5.04625C15.0078 5.05609 14.7909 4.81358 14.7898 4.3471L20.7898 4.33249C20.7829 1.52517 18.444 -0.0673126 16.8901 -0.784786C15.083 -1.61921 12.7978 -2.05595 10.4343 -2.05716L10.4312 3.94284ZM14.7898 4.33979C14.7898 6.26968 16.3581 7.06588 16.6589 7.20476C17.2139 7.46104 17.7698 7.53961 18.2225 7.53961V1.53961C18.4362 1.53961 18.7757 1.57345 19.1741 1.75741C19.3711 1.84837 19.7095 2.03474 20.036 2.39124C20.3785 2.76519 20.7898 3.43025 20.7898 4.33979H14.7898ZM18.2225 7.53961C18.6752 7.53961 19.2311 7.46104 19.7861 7.20477C20.0869 7.06589 21.6553 6.26969 21.6553 4.33979H15.6553C15.6553 3.43025 16.0665 2.76518 16.409 2.39123C16.7356 2.03474 17.0739 1.84837 17.2709 1.7574C17.6693 1.57345 18.0088 1.53961 18.2225 1.53961V7.53961ZM21.6553 4.33261C21.6483 1.4149 19.2124 -0.27748 17.5019 -1.06726C15.5381 -1.97398 13.0367 -2.45547 10.4343 -2.45679L10.4312 3.54321C12.368 3.54419 13.9752 3.91307 14.9867 4.3801C15.4946 4.61461 15.7275 4.81602 15.796 4.89073C15.8488 4.94833 15.6563 4.75833 15.6553 4.34698L21.6553 4.33261ZM10.4327 -2.45679C9.98004 -2.45679 9.42418 -2.37822 8.86914 -2.12195C8.56836 -1.98307 7 -1.18688 7 0.743026H13C13 1.65257 12.5888 2.31764 12.2462 2.69159C11.9197 3.04808 11.5814 3.23445 11.3843 3.32542C10.9859 3.50937 10.6464 3.54321 10.4327 3.54321V-2.45679ZM7 0.743026C7 2.67293 8.56837 3.46912 8.86914 3.608C9.42418 3.86427 9.98004 3.94284 10.4327 3.94284V-2.05716C10.6464 -2.05716 10.9859 -2.02332 11.3843 -1.83936C11.5814 -1.7484 11.9197 -1.56203 12.2462 -1.20554C12.5888 -0.831586 13 -0.166521 13 0.743026H7Z" fill="#EE1C27" mask="url(#path-2-inside-1)"/>
<mask id="path-4-inside-2" fill="white">
<path d="M10.4328 2.14157C13.0606 2.143 15.1901 3.12625 15.1932 4.3396C15.1932 4.44996 15.387 4.53941 15.626 4.53941C15.865 4.53941 16.0587 4.44996 16.0587 4.3396C16.0551 2.90562 13.5384 1.74358 10.4328 1.74194C10.1937 1.74194 10 1.83139 10 1.94176C10 2.05212 10.1937 2.14157 10.4328 2.14157Z"/>
</mask>
<path d="M10.4328 2.14157C13.0606 2.143 15.1901 3.12625 15.1932 4.3396C15.1932 4.44996 15.387 4.53941 15.626 4.53941C15.865 4.53941 16.0587 4.44996 16.0587 4.3396C16.0551 2.90562 13.5384 1.74358 10.4328 1.74194C10.1937 1.74194 10 1.83139 10 1.94176C10 2.05212 10.1937 2.14157 10.4328 2.14157Z" fill="#EE1C27"/>
<path d="M10.4328 2.14157L10.4344 -0.858432H10.4328V2.14157ZM15.1932 4.3396H18.1932L18.1932 4.33195L15.1932 4.3396ZM16.0587 4.3396H19.0587L19.0587 4.33207L16.0587 4.3396ZM10.4328 1.74194L10.4343 -1.25806H10.4328V1.74194ZM10.4311 5.14157C11.4122 5.1421 12.1545 5.33196 12.5397 5.5098C12.7344 5.5997 12.7138 5.62899 12.607 5.51261C12.4846 5.37914 12.1948 4.97911 12.1932 4.34725L18.1932 4.33195C18.1869 1.85579 16.139 0.562993 15.0549 0.0624309C13.7175 -0.555057 12.0811 -0.857536 10.4344 -0.858431L10.4311 5.14157ZM12.1932 4.3396C12.1932 6.2698 13.7621 7.06592 14.0625 7.20461C14.6174 7.46082 15.1732 7.53941 15.626 7.53941V1.53941C15.8398 1.53941 16.1792 1.57328 16.5775 1.75717C16.7744 1.8481 17.1127 2.03441 17.4393 2.39084C17.7818 2.76469 18.1932 3.42981 18.1932 4.3396H12.1932ZM15.626 7.53941C16.0787 7.53941 16.6345 7.46085 17.1896 7.20457C17.4904 7.06569 19.0587 6.2695 19.0587 4.3396H13.0587C13.0587 3.43005 13.47 2.76499 13.8125 2.39104C14.139 2.03454 14.4774 1.84817 14.6744 1.75721C15.0728 1.57325 15.4123 1.53941 15.626 1.53941V7.53941ZM19.0587 4.33207C19.0522 1.74552 16.9073 0.352829 15.6666 -0.220038C14.1726 -0.909835 12.32 -1.25706 10.4343 -1.25806L10.4312 4.74194C11.6512 4.74259 12.6097 4.9772 13.1514 5.22733C13.4244 5.35338 13.4672 5.42569 13.4043 5.35709C13.3256 5.27138 13.0602 4.92386 13.0587 4.34713L19.0587 4.33207ZM10.4328 -1.25806C9.98005 -1.25806 9.42418 -1.17949 8.86915 -0.923221C8.56838 -0.784348 7 0.0118444 7 1.94176H13C13 2.85131 12.5888 3.51638 12.2462 3.89032C11.9197 4.24682 11.5813 4.43319 11.3843 4.52415C10.9859 4.70811 10.6464 4.74194 10.4328 4.74194V-1.25806ZM7 1.94176C7 3.87167 8.56838 4.66786 8.86915 4.80673C9.42419 5.06301 9.98005 5.14157 10.4328 5.14157V-0.858432C10.6464 -0.858432 10.9859 -0.824595 11.3843 -0.640638C11.5813 -0.549675 11.9197 -0.363311 12.2462 -0.00681436C12.5888 0.367135 13 1.0322 13 1.94176H7Z" fill="#EE1C27" mask="url(#path-4-inside-2)"/>
<path d="M10.4328 2.94092C10.4328 2.94092 10.4329 2.94092 10.433 2.94092C10.807 2.94112 11.1651 2.97258 11.4957 3.02994L11.4633 3.4614C11.1569 3.3845 10.8059 3.34075 10.4328 3.34054V3.14073V2.94092ZM10.4328 2.94092C10.1937 2.94092 10 3.03037 10 3.14073C10 3.25106 10.1936 3.34049 10.4326 3.34054L10.4327 3.14073L10.4328 2.94092ZM12.3221 3.40415C12.3612 3.36152 12.4003 3.3244 12.4382 3.29215L12.5966 4.33965C12.596 4.10094 12.4143 3.88183 12.1116 3.71001C12.1763 3.58232 12.2529 3.47975 12.3221 3.40415Z" fill="#EE1C27" stroke="#EE1C27" stroke-width="3"/>
</svg>
