<svg width="19" height="9" viewBox="0 0 19 9" fill="none" xmlns="http://www.w3.org/2000/svg">
<path d="M17.7153 5.88884C17.2378 5.52563 15.9778 5.36535 15.2691 5.3021C13.9758 5.18671 12.3091 5.19549 11.5012 5.47525C11.2353 5.5674 11.1028 5.75782 11.0719 6.09272C11.0678 6.13685 11.066 6.17994 11.0655 6.22077C9.69283 5.97598 8.42573 5.61081 7.34428 5.14825L6.86937 4.93021C5.86332 4.43438 5.0687 3.85344 4.53582 3.22425C4.62492 3.22405 4.71898 3.22322 4.81534 3.22135C5.54322 3.20716 5.95715 3.14645 6.15746 3.02454C6.76419 2.65528 6.78616 1.89282 6.53879 1.30102C6.40166 0.97283 6.05268 0.389371 5.25688 0.168853C4.46518 -0.0505401 3.24153 0.00238492 2.75215 0.0353591C1.74255 0.103309 0.902627 0.268023 0.505266 0.4759C0.159007 0.657078 0.0373676 1.17412 0.00117311 1.38798C0.00019883 1.3936 -0.000142296 1.39938 5.25603e-05 1.40503C0.0596298 3.14701 1.51092 4.81046 4.08648 6.08831C4.08994 6.08999 4.09345 6.09238 4.097 6.09402L4.81904 6.42694C4.8226 6.42858 4.8262 6.43303 4.82995 6.43456C7.61265 7.61682 11.2339 8.27099 15.0266 8.31598C15.0286 8.31598 15.0307 8.31598 15.0327 8.31598C15.0427 8.31598 15.0527 8.31018 15.0628 8.30984C15.528 8.29322 16.6526 8.23181 17.0465 8.07315C17.4996 7.8906 17.8586 7.5046 18.0068 7.04058C18.0786 6.81559 18.194 6.253 17.7153 5.88884ZM17.2357 6.98806C17.1192 7.35271 16.8372 7.6798 16.5344 7.80182C16.3986 7.85349 15.6942 7.91984 15.0205 7.94474C11.4285 7.91678 7.99973 7.28548 5.36327 6.16643L4.65205 5.83985C2.21528 4.62968 0.840711 3.0561 0.779819 1.40746C0.833648 1.09897 0.977744 0.776199 1.08983 0.71394C1.35625 0.574575 2.06952 0.444973 2.86478 0.39144C3.69891 0.335276 4.46197 0.368205 4.85597 0.477407C5.23613 0.582762 5.5878 0.924471 5.77369 1.36922C6.01765 1.9529 5.91896 2.56637 5.54488 2.802C5.39382 2.85099 4.7089 2.87724 4.06646 2.85949C3.9967 2.85137 3.92134 2.85191 3.84802 2.8632C3.78401 2.87308 3.72926 2.8899 3.68629 2.91122C3.62438 2.94058 3.58365 2.97976 3.57674 3.02384C3.57079 3.06183 3.59101 3.09787 3.63013 3.12834C4.1689 3.85558 5.0308 4.5291 6.15186 5.10162C6.16511 5.11141 6.1806 5.12074 6.19833 5.12947C6.31383 5.18631 6.43187 5.24209 6.55214 5.29666C6.67125 5.35201 6.79284 5.40629 6.91701 5.45941C6.93606 5.46756 6.95637 5.47466 6.97761 5.48071C8.2242 5.99519 9.69069 6.39088 11.2738 6.63814C11.3398 6.65614 11.4177 6.66542 11.5 6.66257C11.5961 6.65935 11.6814 6.64021 11.7451 6.61124C11.7516 6.60841 11.7574 6.6053 11.7636 6.60226C11.7652 6.60139 11.7669 6.60051 11.7686 6.59961C11.803 6.5818 11.831 6.56092 11.8482 6.53683C11.8724 6.50303 11.8734 6.46834 11.8557 6.43622C11.8174 6.14204 11.8741 5.82863 11.9802 5.7594C12.4976 5.58618 13.8425 5.54138 15.1214 5.65548C16.0825 5.74125 16.8213 5.90223 17.0491 6.0756C17.2863 6.25604 17.3577 6.60568 17.2357 6.98806Z" fill="#EE1C27"/>
</svg>
